<?xml version="1.0" encoding="utf-8"?>
<!-- Generator: Adobe Illustrator 17.0.2, SVG Export Plug-In . SVG Version: 6.00 Build 0)  -->
<!DOCTYPE svg PUBLIC "-//W3C//DTD SVG 1.1//EN" "http://www.w3.org/Graphics/SVG/1.1/DTD/svg11.dtd">
<svg version="1.1" id="Layer_1" xmlns="http://www.w3.org/2000/svg" xmlns:xlink="http://www.w3.org/1999/xlink" x="0px" y="0px"
	 width="595.28px" height="226.101px" viewBox="0 0 595.28 226.101" enable-background="new 0 0 595.28 226.101"
	 xml:space="preserve">
<path fill="#231F20" d="M101.862,156.486H72.616V84.185h28.128c13.404,0,21.833,7.616,21.833,19.801
	c0,7.819-4.875,13.404-9.749,15.334c5.585,2.234,10.865,7.616,10.865,16.755C123.694,149.377,114.657,156.486,101.862,156.486z
	 M99.831,94.035H83.584v20.716h16.248c7.007,0,11.779-3.656,11.779-10.358C111.61,97.69,106.838,94.035,99.831,94.035z
	 M100.846,124.6H83.584v22.036h17.263c7.616,0,11.881-4.672,11.881-11.069C112.728,129.169,108.462,124.6,100.846,124.6z"/>
<path fill="#231F20" d="M139.943,156.486V84.185h46.204v9.85h-35.237v21.122h30.058v9.748h-30.058v21.731h35.237v9.85H139.943z"/>
<path fill="#C02D26" d="M139.911,64.636h46.237v9.85h-46.204"/>
<path fill="#231F20" d="M245.554,156.486l-33.409-50.875v50.875h-10.967V84.185h10.053l33.409,50.774V84.185h10.967v72.301H245.554z
	"/>
<path fill="#231F20" d="M317.755,148.87c-5.483,5.789-12.287,8.226-19.903,8.226c-7.514,0-14.013-2.741-18.989-7.718
	c-7.108-7.108-7.007-15.13-7.007-29.042c0-13.912-0.102-21.935,7.007-29.043c4.976-4.975,11.272-7.717,18.989-7.717
	c15.334,0,24.271,10.053,26.301,22.442h-11.068c-1.828-7.921-7.108-12.592-15.232-12.592c-4.265,0-8.124,1.727-10.662,4.468
	c-3.554,3.859-4.366,7.921-4.366,22.442c0,14.521,0.812,18.685,4.366,22.543c2.539,2.742,6.397,4.367,10.662,4.367
	c4.773,0,8.936-1.828,11.78-5.078c2.64-3.046,3.655-6.702,3.655-11.373v-4.062h-15.435v-9.343h26.402v11.069
	C324.254,137.801,322.528,143.792,317.755,148.87z"/>
<path fill="#231F20" d="M340.401,156.486V84.185h10.967v62.452h34.831v9.85H340.401z"/>
<path fill="#231F20" d="M398.69,156.486V84.185h46.203v9.85h-35.236v21.122h30.058v9.748h-30.058v21.731h35.236v9.85H398.69z"/>
<path fill="#231F20" d="M499.832,156.486l-15.231-30.464h-13.709v30.464h-10.967V84.185h28.026c13.709,0,22.442,8.834,22.442,21.122
	c0,10.358-6.296,16.959-14.42,19.192l16.653,31.987H499.832z M487.139,94.035h-16.247v22.645h16.247
	c7.311,0,12.287-4.163,12.287-11.271S494.45,94.035,487.139,94.035z"/>
</svg>
