<?xml version="1.0" encoding="utf-8"?>
<!-- Generator: Adobe Illustrator 17.0.2, SVG Export Plug-In . SVG Version: 6.00 Build 0)  -->
<!DOCTYPE svg PUBLIC "-//W3C//DTD SVG 1.1//EN" "http://www.w3.org/Graphics/SVG/1.1/DTD/svg11.dtd">
<svg version="1.1" id="Layer_1" xmlns="http://www.w3.org/2000/svg" xmlns:xlink="http://www.w3.org/1999/xlink" x="0px" y="0px"
	 width="127.56px" height="45.354px" viewBox="0 0 127.56 45.354" enable-background="new 0 0 127.56 45.354" xml:space="preserve">
<g>
	<g>
		<g>
			<path d="M55.165,27.456H54.57l1.583-4.435h0.641l1.559,4.435h-0.621l-0.442-1.277h-1.678L55.165,27.456z M56.622,24.222
				c-0.087-0.229-0.146-0.411-0.168-0.523h-0.006c-0.036,0.112-0.083,0.287-0.17,0.529l-0.495,1.455h1.343L56.622,24.222z"/>
			<path d="M60.839,24.808c-0.067-0.013-0.146-0.02-0.205-0.02c-0.585,0-0.913,0.521-0.913,1.043v1.625h-0.54v-3.103h0.54v0.588
				c0.071-0.359,0.513-0.668,0.941-0.668c0.061,0,0.13,0.008,0.177,0.019V24.808z"/>
			<path d="M61.401,24.353h0.606v-1.123l0.54-0.117v1.24h0.685v0.41h-0.685v1.924c0,0.139,0.005,0.229,0.043,0.293
				c0.04,0.074,0.111,0.104,0.283,0.104c0.13,0,0.255-0.019,0.359-0.038v0.425c-0.16,0.038-0.339,0.064-0.544,0.064
				c-0.293,0-0.548-0.064-0.646-0.326c-0.024-0.07-0.036-0.169-0.036-0.299v-2.147h-0.606V24.353z"/>
			<path d="M65.939,25.121c-0.224-0.247-0.522-0.392-0.864-0.392c-0.342,0-0.611,0.15-0.611,0.425c0,0.292,0.234,0.372,0.698,0.47
				l0.359,0.071c0.495,0.105,0.894,0.314,0.894,0.855c0,0.634-0.554,0.984-1.297,0.984c-0.594,0-1.083-0.292-1.333-0.611
				l0.354-0.367c0.232,0.307,0.585,0.528,1.01,0.528c0.426,0,0.712-0.175,0.712-0.489c0-0.291-0.228-0.357-0.54-0.416l-0.425-0.086
				c-0.535-0.103-0.981-0.319-0.981-0.867c0-0.666,0.615-0.945,1.189-0.945c0.573,0,0.986,0.254,1.186,0.488L65.939,25.121z"/>
			<path d="M73.122,26.446c-0.319,0.678-0.933,1.088-1.746,1.088c-1.176,0-2.026-0.848-2.026-2.296c0-1.35,0.779-2.296,2.026-2.296
				c0.779,0,1.375,0.385,1.706,1.011l-0.487,0.333c-0.228-0.54-0.655-0.842-1.219-0.842c-0.883,0-1.424,0.706-1.424,1.794
				c0,1.083,0.541,1.796,1.424,1.796c0.57,0,0.992-0.315,1.222-0.851L73.122,26.446z"/>
			<path d="M75.396,24.28c0.877,0,1.48,0.641,1.48,1.637c0,0.992-0.592,1.617-1.48,1.617c-0.882,0-1.478-0.625-1.478-1.617
				C73.919,24.921,74.524,24.28,75.396,24.28z M75.396,27.084c0.549,0,0.929-0.437,0.929-1.175c0-0.748-0.363-1.184-0.929-1.184
				c-0.558,0-0.922,0.441-0.922,1.184C74.475,26.654,74.848,27.084,75.396,27.084z"/>
			<path d="M77.938,24.353h0.541v1.787c0,0.293,0.031,0.488,0.104,0.625c0.109,0.215,0.304,0.294,0.599,0.294
				c0.521,0,0.788-0.423,0.788-0.926v-1.78h0.544v3.103h-0.544v-0.454c-0.168,0.299-0.469,0.532-0.987,0.532
				c-0.321,0-0.596-0.09-0.778-0.292c-0.194-0.224-0.267-0.444-0.267-1.124V24.353z"/>
			<path d="M84.41,27.456h-0.541v-1.807c0-0.672-0.249-0.895-0.707-0.895c-0.521,0-0.819,0.419-0.819,0.908v1.793h-0.545v-3.103
				h0.545v0.461c0.161-0.284,0.48-0.533,0.996-0.533c0.406,0,0.705,0.138,0.875,0.398c0.131,0.202,0.196,0.47,0.196,0.835V27.456z"
				/>
			<path d="M88.26,26.737c-0.256,0.518-0.718,0.797-1.328,0.797c-0.917,0-1.469-0.625-1.469-1.617c0-0.996,0.604-1.637,1.469-1.637
				c0.648,0,1.092,0.315,1.3,0.841l-0.448,0.235c-0.13-0.365-0.392-0.627-0.852-0.627c-0.551,0-0.917,0.438-0.917,1.18
				c0,0.745,0.391,1.175,0.917,1.175c0.467,0,0.744-0.215,0.902-0.56L88.26,26.737z"/>
			<path d="M89.751,23.713h-0.538v-0.692h0.538V23.713z M89.751,27.456h-0.538v-3.103h0.538V27.456z"/>
			<path d="M91.589,27.456h-0.545v-4.435h0.545V27.456z"/>
			<path d="M57.711,32.142c0.141,0.197,0.307,0.457,0.333,0.502h0.005c0,0-0.012-0.326-0.012-0.717v-2.766h0.573v4.436h-0.567
				l-2.073-2.988c-0.121-0.177-0.319-0.482-0.345-0.534h-0.009c0,0,0.014,0.285,0.014,0.545v2.977h-0.575v-4.436h0.57L57.711,32.142
				z"/>
			<path d="M61.204,30.421c0.871,0,1.482,0.639,1.482,1.637c0,0.992-0.598,1.617-1.482,1.617c-0.888,0-1.483-0.625-1.483-1.617
				C59.721,31.059,60.329,30.421,61.204,30.421z M61.204,33.226c0.547,0,0.925-0.438,0.925-1.176c0-0.748-0.368-1.188-0.925-1.188
				c-0.565,0-0.928,0.445-0.928,1.188C60.276,32.796,60.655,33.226,61.204,33.226z"/>
			<path d="M65.424,30.948c-0.065-0.014-0.144-0.02-0.201-0.02c-0.589,0-0.917,0.523-0.917,1.044v1.625h-0.539v-3.106h0.539v0.588
				c0.073-0.358,0.511-0.666,0.943-0.666c0.057,0,0.13,0.008,0.175,0.02V30.948z"/>
			<path d="M69.013,32.194c0.085,0.267,0.156,0.517,0.191,0.665h0.008c0.04-0.143,0.12-0.431,0.203-0.684l0.542-1.684h0.562
				l-1.078,3.106h-0.486l-0.541-1.768c-0.085-0.262-0.153-0.502-0.174-0.58h-0.005c-0.02,0.078-0.086,0.318-0.169,0.586
				l-0.562,1.763h-0.507l-1.066-3.106h0.577l0.567,1.703c0.085,0.247,0.163,0.521,0.201,0.665h0.007
				c0.038-0.148,0.111-0.411,0.196-0.672l0.556-1.696h0.466L69.013,32.194z"/>
			<path d="M73.926,33.642c-0.065,0.014-0.172,0.029-0.306,0.029c-0.384,0-0.503-0.167-0.522-0.42h-0.009
				c-0.097,0.164-0.346,0.43-0.939,0.43c-0.633,0-1.078-0.306-1.078-0.932c0-0.247,0.073-0.425,0.189-0.555
				c0.21-0.236,0.569-0.338,1.02-0.416l0.522-0.086c0.194-0.033,0.262-0.059,0.262-0.19v-0.091c0-0.327-0.112-0.542-0.659-0.542
				c-0.561,0-0.736,0.281-0.736,0.652l-0.52-0.059c-0.012-0.698,0.584-1.038,1.276-1.038c0.705,0,1.16,0.203,1.16,0.979
				c0,0.143,0,1.58,0,1.58c0,0.214,0.076,0.278,0.267,0.278h0.073V33.642z M73.064,32.03c-0.056,0.02-0.188,0.046-0.692,0.152
				c-0.393,0.077-0.741,0.156-0.741,0.533c0,0.352,0.279,0.544,0.649,0.544c0.404,0,0.784-0.177,0.784-0.661V32.03z"/>
			<path d="M75.685,34.229c-0.196,0.541-0.491,0.658-0.938,0.658c-0.163,0-0.29-0.02-0.393-0.039v-0.435
				c0.129,0.018,0.241,0.032,0.353,0.032c0.154,0,0.288-0.019,0.391-0.125c0.066-0.065,0.118-0.155,0.17-0.311l0.14-0.4
				l-1.078-3.118h0.574l0.607,1.879c0.085,0.261,0.169,0.543,0.169,0.543h0.005c0,0,0.094-0.307,0.191-0.58l0.632-1.842h0.543
				L75.685,34.229z"/>
		</g>
		<g>
			<path d="M59.562,18.591h-0.936l-2.023-2.932l-1.061,1.095v1.837h-0.741v-5.729h0.741v2.974l2.882-2.974h0.993l-2.266,2.284
				L59.562,18.591z"/>
			<path d="M61.497,17.799c-0.214-0.363-0.297-0.717-0.297-1.567v-3.37h0.741v3.361c0,0.464,0.011,0.936,0.212,1.265
				c0.21,0.353,0.656,0.555,1.212,0.555c0.558,0,1.003-0.202,1.214-0.555c0.201-0.33,0.211-0.801,0.211-1.265v-3.361h0.74v3.37
				c0,0.85-0.084,1.204-0.295,1.567c-0.368,0.623-1.018,0.9-1.87,0.9C62.515,18.699,61.867,18.421,61.497,17.799z"/>
			<path d="M71.392,18.591h-3.58v-5.729h0.75v5.062h2.83V18.591z"/>
			<path d="M71.665,12.862h4.266v0.666h-1.762v5.063H73.43v-5.063h-1.765V12.862z"/>
			<path d="M78.055,17.799c-0.212-0.363-0.297-0.717-0.297-1.567v-3.37h0.741v3.361c0,0.464,0.01,0.936,0.212,1.265
				c0.21,0.353,0.657,0.555,1.213,0.555c0.556,0,1.002-0.202,1.212-0.555c0.203-0.33,0.212-0.801,0.212-1.265v-3.361h0.741v3.37
				c0,0.85-0.085,1.204-0.295,1.567c-0.371,0.623-1.019,0.9-1.87,0.9C79.073,18.699,78.423,18.421,78.055,17.799z"/>
			<path d="M85.111,18.591H84.37v-5.729h2.156c0.573,0,0.908,0.066,1.179,0.168c0.582,0.235,0.937,0.75,0.937,1.474
				c0,0.921-0.616,1.467-1.45,1.602l1.616,2.486h-0.925l-1.566-2.451h-1.205V18.591z M86.4,15.481c0.529,0,0.766-0.05,0.984-0.142
				c0.32-0.153,0.489-0.438,0.489-0.843c0-0.396-0.186-0.699-0.507-0.842c-0.21-0.084-0.438-0.135-0.978-0.135h-1.278v1.963H86.4z"
				/>
			<path d="M91.782,18.591h-0.741v-5.729h2.156c0.572,0,0.911,0.066,1.18,0.168c0.582,0.235,0.937,0.75,0.937,1.474
				c0,0.921-0.616,1.467-1.452,1.602l1.62,2.486h-0.927l-1.566-2.451h-1.206V18.591z M93.072,15.481c0.529,0,0.767-0.05,0.984-0.142
				c0.32-0.153,0.489-0.438,0.489-0.843c0-0.396-0.185-0.699-0.507-0.842c-0.21-0.084-0.438-0.135-0.978-0.135h-1.279v1.963H93.072z
				"/>
			<path d="M97.791,18.591h-0.774l2.047-5.729h0.824l2.014,5.729h-0.8l-0.573-1.651h-2.163L97.791,18.591z M99.671,14.413
				c-0.111-0.296-0.188-0.531-0.219-0.675h-0.009c-0.042,0.144-0.111,0.37-0.221,0.682l-0.639,1.88h1.734L99.671,14.413z
				 M99.452,10.974c0.464,0,0.831,0.363,0.831,0.827c0,0.464-0.367,0.825-0.831,0.825c-0.464,0-0.835-0.361-0.835-0.825
				C98.617,11.336,98.988,10.974,99.452,10.974z M99.443,12.128c0.176,0,0.326-0.144,0.326-0.328c0-0.186-0.15-0.329-0.326-0.329
				c-0.179,0-0.33,0.143-0.33,0.329C99.113,11.984,99.265,12.128,99.443,12.128z"/>
			<path d="M103.763,18.591v-5.729h1.401c0.917,0,1.522,0.008,2.081,0.412c0.613,0.456,1.062,1.341,1.062,2.428
				c0,0.951-0.314,1.76-0.844,2.291c-0.615,0.599-1.221,0.599-2.334,0.599H103.763z M104.506,17.933h0.792
				c0.69,0,1.172,0,1.592-0.354c0.387-0.32,0.676-1,0.676-1.844c0-0.732-0.263-1.457-0.702-1.845
				c-0.402-0.337-0.842-0.362-1.677-0.362h-0.681V17.933z"/>
			<path d="M114.534,18.591h-3.992v-5.729h3.832v0.666h-3.09v1.786h2.804v0.665h-2.804v1.945h3.25V18.591z"/>
			<path d="M116.32,12.862h4.261v0.666h-1.759v5.063h-0.743v-5.063h-1.759V12.862z"/>
		</g>
	</g>
	<rect x="45.234" y="6.602" width="0.733" height="32.659"/>
	<g>
		<path d="M21.804,37.989l-4.137-2.389l-0.908,1.287l5.045,2.914l7.392-4.267l-1.028-1.22L21.804,37.989z M28.08,11.497l0.908-1.288
			l-7.185-4.148l-4.121,2.38v1.813l4.121-2.38L28.08,11.497z M30.645,11.163L15.781,32.245L15.78,9.54l-8.586,4.957v16.87
			l7.908,4.566l7.707-10.925l8.06,9.56l5.547-3.201v-16.87L30.645,11.163z M14.21,33.604L8.766,30.46V15.403l5.444-3.144V33.604z
			 M34.846,30.46l-3.627,2.094l-7.474-8.873l7.364-10.436l3.736,2.158V30.46z"/>
	</g>
</g>
</svg>
