<?xml version="1.0" encoding="utf-8"?>
<!-- Generator: Adobe Illustrator 17.0.2, SVG Export Plug-In . SVG Version: 6.00 Build 0)  -->
<!DOCTYPE svg PUBLIC "-//W3C//DTD SVG 1.1//EN" "http://www.w3.org/Graphics/SVG/1.1/DTD/svg11.dtd">
<svg version="1.1" id="_x3C_Layer_x3E_" xmlns="http://www.w3.org/2000/svg" xmlns:xlink="http://www.w3.org/1999/xlink" x="0px"
	 y="0px" width="200px" height="53px" viewBox="218.138 316.445 200 53" enable-background="new 218.138 316.445 200 53"
	 xml:space="preserve">
<g>
	<path d="M232.443,347.06l-3.797-10.181v10.181h-4.677v-21.022h4.595l3.825,9.906v-9.906h4.678v21.022H232.443z"/>
	<path d="M247.192,347.06l-0.495-3.137h-3.632l-0.495,3.137h-4.678v-0.055l4.43-20.968h5.118l4.43,20.968v0.055H247.192z
		 M244.881,332.779l-1.156,7.153h2.311L244.881,332.779z"/>
	<path d="M262.521,347.06h-7.567c-1.623,0-2.394-0.798-2.394-2.449v-4.622h4.678v3.246h3v-3.054l-6.879-4.705
		c-0.633-0.44-0.798-0.881-0.798-1.816v-5.173c0-1.651,0.771-2.449,2.394-2.449h7.594c1.624,0,2.394,0.771,2.394,2.422v4.457h-4.705
		v-3.054h-3v3.026l6.852,4.678c0.633,0.44,0.853,0.908,0.853,1.844v5.2C264.943,346.262,264.145,347.06,262.521,347.06z"/>
	<path d="M275.867,347.06h-7.292c-1.651,0-2.394-0.798-2.394-2.449v-4.98h4.678v3.468h2.751v-17.061h4.678v18.573
		C278.288,346.262,277.518,347.06,275.867,347.06z"/>
	<path d="M290.092,347.06h-7.952c-1.624,0-2.367-0.798-2.367-2.449v-16.124c0-1.651,0.743-2.449,2.367-2.449h7.952
		c1.624,0,2.394,0.798,2.394,2.449v16.124C292.486,346.262,291.715,347.06,290.092,347.06z M287.781,330h-3.33v13.098h3.33V330z"/>
	<path d="M302.446,347.06l-3.797-10.181v10.181h-4.678v-21.022h4.595l3.825,9.906v-9.906h4.678v21.022H302.446z"/>
	<path d="M317.195,347.06l-0.496-3.137h-3.631l-0.496,3.137h-4.678v-0.055l4.43-20.968h5.119l4.43,20.968v0.055H317.195z
		 M314.884,332.779l-1.155,7.153h2.311L314.884,332.779z"/>
	<path d="M322.698,347.06v-21.022h4.678v16.812h5.503v4.21H322.698z"/>
	<path d="M344.903,347.06v-10.318l-1.651,8.475h-3.137l-1.65-8.475v10.318h-4.596v-21.022h4.761l2.972,9.301h0.165l2.944-9.301h4.76
		v21.022H344.903z"/>
	<path d="M361.247,347.06h-7.897c-1.651,0-2.395-0.798-2.395-2.449v-18.573h4.678v17.061h3.33v-17.061h4.705v18.573
		C363.669,346.262,362.898,347.06,361.247,347.06z"/>
	<path d="M375.115,347.06h-7.566c-1.624,0-2.395-0.798-2.395-2.449v-4.622h4.678v3.246h2.999v-3.054l-6.879-4.705
		c-0.633-0.44-0.798-0.881-0.798-1.816v-5.173c0-1.651,0.771-2.449,2.395-2.449h7.594c1.624,0,2.395,0.771,2.395,2.422v4.457h-4.706
		v-3.054h-2.999v3.026l6.852,4.678c0.633,0.44,0.853,0.908,0.853,1.844v5.2C377.537,346.262,376.738,347.06,375.115,347.06z"/>
	<path d="M379.022,347.06v-21.022h10.896v4.155H383.7v4.045h5.008v4.018H383.7v4.649h6.301v4.155H379.022z"/>
	<path d="M391.185,347.06v-21.022h10.895v4.155h-6.218v4.045h5.008v4.018h-5.008v4.649h6.301v4.155H391.185z"/>
	<path d="M411.105,330.192v16.867h-4.678v-16.867h-3.688v-4.155h12.053v4.155H411.105z"/>
</g>
</svg>
